<svg width="128" height="56" viewBox="0 0 128 56" fill="none" xmlns="http://www.w3.org/2000/svg">
<g clip-path="url(#clip0_3134_2179)">
<path d="M77.1245 26.7373H75.2057V25.0318H77.1163V22.9904H79.01V25.0131H81.2863V26.7291H79.0409C79.0409 27.8632 79.0126 28.9455 79.0531 30.0252C79.0724 30.5394 79.4782 30.8436 80.0404 30.8706C80.3252 30.8842 80.6124 30.8483 80.9561 30.8322C81.049 31.3689 81.144 31.9162 81.2376 32.4558C79.3701 33.3758 77.2554 32.0725 77.1407 29.9339C77.0927 29.0386 77.1267 28.1392 77.1238 27.2415C77.1241 27.0859 77.1245 26.9312 77.1245 26.7373Z" fill="white"/>
<path d="M87.2062 26.7372H85.2838V25.0211H87.2V22.9844H89.0756V25.0142H91.3817V26.736H89.1446C89.1446 27.8775 89.1132 28.9736 89.1586 30.0665C89.1792 30.5686 89.5716 30.8443 90.1276 30.8688C90.4133 30.882 90.7012 30.845 91.0374 30.8282C91.1321 31.3613 91.2297 31.9102 91.3264 32.4529C89.5701 33.3263 87.3914 32.1217 87.258 30.1958C87.1913 29.2294 87.2204 28.2569 87.2068 27.2863C87.2042 27.1176 87.2062 26.9495 87.2062 26.7372Z" fill="white"/>
<path d="M48.4629 25.0389H50.3052V32.5062H48.4629V25.0389Z" fill="white"/>
<path d="M84.3867 25.0505V32.5013H82.5721V25.0505H84.3867Z" fill="white"/>
<path d="M49.3717 23.675C48.6674 23.671 48.138 23.1141 48.1476 22.3869C48.1571 21.6597 48.7034 21.1027 49.3952 21.1119C50.0871 21.121 50.6331 21.6931 50.6277 22.4089C50.6224 23.1248 50.0722 23.679 49.3717 23.675Z" fill="white"/>
<path d="M83.4942 23.6751C82.7881 23.6817 82.2463 23.1402 82.2328 22.4166C82.2194 21.7034 82.7637 21.1224 83.4555 21.1121C84.1474 21.1019 84.7072 21.6613 84.7183 22.3773C84.7285 23.1001 84.1925 23.6686 83.4942 23.6751Z" fill="white"/>
<path d="M56.8422 21.6129V25.4989C56.7104 25.4222 56.6266 25.3743 56.5434 25.3253C55.8855 24.937 55.1116 24.7948 54.3591 24.924C53.6066 25.0533 52.924 25.4456 52.4326 26.0313C51.5878 27.0358 51.3399 28.2082 51.5144 29.4857C51.7932 31.5178 53.5244 32.912 55.4681 32.6169C55.9728 32.5403 56.4972 32.3328 56.918 32.0232L56.9238 32.5062C57.517 32.5062 58.1412 32.5033 58.7337 32.5033V21.6129H56.8422ZM56.3162 30.444C55.7562 30.791 55.1777 30.9169 54.5499 30.6834C53.7825 30.3983 53.2552 29.4799 53.3541 28.6228C53.4777 27.553 54.0466 26.8735 54.9654 26.7625C55.6931 26.6747 56.2809 26.9867 56.7477 27.5305C56.7805 27.5706 56.8159 27.6085 56.8536 27.644C56.868 27.9464 56.8582 28.496 56.8585 28.7991C56.8585 28.8858 56.8522 28.9731 56.8547 29.0594C56.8547 29.0881 56.8571 29.9441 56.8605 29.9731C56.862 29.9731 56.8176 30.1336 56.3162 30.444Z" fill="white"/>
<path d="M71.1311 24.9529C70.5009 25.0144 69.8653 25.3859 69.3842 25.6707L69.3713 25.0467H67.615V32.4979H69.4673V31.9982C69.4673 30.6805 69.436 28.7919 69.4658 27.4741C69.5691 27.3672 69.6787 27.2666 69.7941 27.1728C70.0967 26.9295 70.4678 26.7164 70.8441 26.6273C71.636 26.4383 72.3919 27.0558 72.5589 27.9308C72.61 28.1982 72.6202 28.4768 72.6218 28.7505C72.628 29.9927 72.6244 31.2347 72.6244 32.4917H74.4437C74.4437 30.8648 74.5306 29.2682 74.4214 27.6861C74.2978 25.925 72.7938 24.79 71.1311 24.9529Z" fill="white"/>
<path d="M66.1978 27.4356C65.5195 24.9558 62.7792 24.0555 60.9209 25.6964C60.123 26.4006 59.761 27.3434 59.6779 28.3866C59.4631 31.0863 61.3366 32.9611 63.8637 32.6265C64.8056 32.5017 65.6055 32.0934 66.2091 31.307L65.142 30.1795C64.4181 30.8704 63.6276 31.2682 62.652 30.882C61.9833 30.6165 61.6278 30.0817 61.5102 29.2829H62.042C63.3537 29.2829 65.0388 29.2803 66.3507 29.2938L66.3534 28.9016C66.3398 28.4115 66.3256 27.903 66.1978 27.4356ZM61.6458 27.7746C61.7234 27.0412 62.3673 26.5103 63.1227 26.5301C63.451 26.5394 63.7636 26.6729 63.9978 26.9037C64.232 27.1346 64.3704 27.4457 64.3852 27.7746H61.6458Z" fill="white"/>
<path d="M48.4629 32.5062H50.3052V25.0389H48.4629V32.5062Z" fill="white"/>
<path d="M49.3952 21.1119C48.7032 21.1027 48.1571 21.6608 48.1476 22.3869C48.138 23.1129 48.6674 23.671 49.3717 23.675C50.0722 23.679 50.6222 23.1245 50.6277 22.4089C50.6333 21.6933 50.0895 21.121 49.3952 21.1119Z" fill="white"/>
<path d="M98.0517 25.0472C97.8435 25.5041 97.6354 25.9611 97.4275 26.4183C97.4035 26.4709 97.383 26.5253 97.3608 26.5785L96.138 29.463C96.0405 29.2625 95.9706 29.1234 95.9066 28.9828C95.3542 27.7744 94.8066 26.5638 94.2461 25.359C94.1863 25.2304 94.0585 25.0454 93.9549 25.0403C93.3282 25.0107 92.6997 25.0256 92.0208 25.0256C92.113 25.2367 92.1724 25.3804 92.238 25.5213C92.9883 27.1317 93.6866 28.7697 94.5105 30.3411C95.0169 31.307 95.1581 31.6914 95.1581 31.6914C95.1581 31.6914 94.456 33.5918 94.3766 33.8086C94.091 34.5911 93.806 35.3736 93.5018 36.208C94.1664 36.208 94.8296 36.208 95.4941 36.208C96.6528 33.3108 97.9977 30.0106 99.1698 27.1192C99.4439 26.4428 99.7127 25.7644 100 25.0466L98.0517 25.0472Z" fill="white"/>
<path d="M79.01 22.9904H77.1163V25.0318H75.2057V26.7373H77.1245C77.1245 26.9312 77.1245 27.0859 77.1245 27.2406C77.1274 28.1383 77.0934 29.0377 77.1414 29.933C77.2561 32.0725 79.3703 33.3749 81.2382 32.4549C81.1446 31.9153 81.0497 31.368 80.9568 30.8313C80.6131 30.8474 80.3259 30.8833 80.0411 30.8697C79.4788 30.8427 79.0731 30.5385 79.0538 30.0243C79.0133 28.9446 79.0415 27.8626 79.0415 26.7282H81.2869V25.0122H79.01V22.9904Z" fill="white"/>
<path d="M83.4545 21.1121C82.7636 21.1224 82.2193 21.7036 82.2318 22.4166C82.2453 23.1411 82.7876 23.6817 83.4932 23.6751C84.1915 23.6686 84.7275 23.1001 84.7159 22.3773C84.7062 21.6613 84.1479 21.1017 83.4545 21.1121Z" fill="white"/>
<path d="M89.0756 22.9844H87.2008V25.0211H85.2847V26.7372H87.207C87.207 26.9495 87.205 27.1185 87.207 27.2874C87.2206 28.2575 87.1915 29.2305 87.2582 30.1969C87.3916 32.1229 89.5703 33.3274 91.3266 32.454C91.2301 31.9114 91.1325 31.362 91.0375 30.8294C90.7014 30.8461 90.4135 30.8831 90.1278 30.8699C89.572 30.8443 89.1794 30.5686 89.1587 30.0676C89.1143 28.9756 89.1447 27.8787 89.1447 26.7372H91.381V25.0142H89.0756V22.9844Z" fill="white"/>
<path d="M82.5721 32.5013H84.3867V25.0505H82.5721V32.5013Z" fill="white"/>
<path d="M41.862 27.5187C42.3667 26.9914 42.81 26.4628 43.1762 25.946C44.2593 24.4167 44.5545 23.1426 44.0078 22.3579C43.4612 21.5732 42.1662 21.4129 40.3619 21.9061C40.0493 21.9915 39.7267 22.0951 39.397 22.215C39.3061 21.8754 39.206 21.5509 39.0969 21.2451C38.4657 19.4803 37.5929 18.5077 36.6381 18.5077C35.6832 18.5077 34.8106 19.4803 34.1801 21.246C34.071 21.5518 33.9712 21.8763 33.8802 22.2159C33.5503 22.096 33.2277 21.993 32.9152 21.907C31.1102 21.4138 29.815 21.5743 29.2692 22.3588C28.7234 23.1432 29.018 24.4176 30.1011 25.9468C30.467 26.4637 30.9105 26.9923 31.4152 27.5196C30.9105 28.0471 30.467 28.5757 30.1011 29.0926C29.018 30.6216 28.7227 31.8959 29.2692 32.6806C29.6078 33.1667 30.2336 33.4132 31.0899 33.4132C31.6162 33.4132 32.2291 33.3203 32.916 33.1324C33.2286 33.047 33.5512 32.9434 33.8811 32.8237C33.972 33.1634 34.0719 33.4878 34.181 33.7936C34.8115 35.5594 35.6843 36.5319 36.639 36.5319C37.5936 36.5319 38.4666 35.5594 39.0969 33.7936C39.206 33.4878 39.3061 33.1634 39.397 32.8237C39.7267 32.9434 40.0493 33.0466 40.3619 33.1324C41.049 33.3203 41.662 33.4132 42.188 33.4132C43.0443 33.4132 43.6701 33.1667 44.0087 32.6806C44.5556 31.8962 44.2602 30.6218 43.177 29.0926C42.81 28.5755 42.3672 28.0471 41.862 27.5187ZM40.501 22.4212C41.1477 22.2444 41.7195 22.1568 42.1955 22.1568C42.8596 22.1568 43.3371 22.3273 43.5714 22.6636C43.9736 23.2408 43.6715 24.3246 42.742 25.6368C42.3929 26.1298 41.9699 26.6344 41.4881 27.1387C41.0226 26.6807 40.5119 26.2261 39.9661 25.7804C39.8894 24.6952 39.7398 23.6663 39.5257 22.7358C39.859 22.6137 40.1853 22.5083 40.501 22.422V22.4212ZM38.2732 29.8648C37.7174 30.2543 37.1703 30.6038 36.6381 30.916C36.1058 30.604 35.5608 30.2536 35.0029 29.8648C34.5879 29.5743 34.1957 29.282 33.8262 28.9878C33.7982 28.5156 33.7817 28.0257 33.7817 27.5182C33.7817 27.0108 33.7971 26.5212 33.8262 26.0489C34.1967 25.7556 34.589 25.4633 35.0029 25.172C35.5454 24.7931 36.0923 24.4419 36.6381 24.1232C37.183 24.4419 37.7307 24.7917 38.2732 25.172C38.6806 25.4575 39.0729 25.7506 39.4501 26.0511C39.4779 26.5227 39.4933 27.0119 39.4933 27.5182C39.4933 28.0246 39.4779 28.514 39.4501 28.9856C39.0734 29.2854 38.6811 29.5789 38.2732 29.8661V29.8648ZM39.3966 29.7032C39.3258 30.5138 39.2026 31.319 39.0277 32.1137C38.3922 31.8505 37.772 31.5516 37.1701 31.2184C37.6405 30.935 38.1116 30.6292 38.5782 30.3025C38.8579 30.1074 39.1307 29.9081 39.3966 29.7045V29.7032ZM36.1063 31.2187C35.5043 31.5518 34.8841 31.8507 34.2486 32.1139C34.0737 31.3193 33.9504 30.5141 33.8796 29.7034C34.1463 29.9065 34.4192 30.1063 34.6981 30.3027C35.1641 30.6305 35.6359 30.9363 36.1063 31.2198V31.2187ZM33.2718 28.5343C32.8683 28.194 32.4965 27.8555 32.1562 27.5187C32.4971 27.1837 32.8689 26.8451 33.2718 26.5031C33.2582 26.8374 33.2495 27.1768 33.2495 27.5187C33.2495 27.8606 33.2582 28.2004 33.2718 28.5354V28.5343ZM33.8796 25.3346C33.9502 24.526 34.0729 23.7227 34.2471 22.93C34.882 23.1921 35.5018 23.4898 36.1036 23.8214C35.6341 24.1044 35.1639 24.4098 34.6981 24.7351C34.4185 24.9314 34.1456 25.1312 33.8796 25.3346ZM37.1725 23.821C37.7743 23.4894 38.3941 23.1917 39.0291 22.9295C39.2033 23.7224 39.3261 24.5258 39.3966 25.3346C39.1298 25.1315 38.857 24.9318 38.5782 24.7354C38.1122 24.4095 37.642 24.1042 37.1725 23.8212V23.821ZM40.0046 26.5071C40.3979 26.8414 40.7698 27.1793 41.1151 27.5194C40.7698 27.8597 40.3979 28.1982 40.0046 28.5318C40.0182 28.1975 40.0268 27.8603 40.0268 27.5194C40.0268 27.1784 40.0182 26.8412 40.0046 26.5073V26.5071ZM36.6381 19.0412C37.4735 19.0412 38.3439 20.2933 38.9008 22.4064C38.1235 22.7243 37.3676 23.0925 36.6381 23.5089C35.9086 23.0925 35.1527 22.7243 34.3753 22.4067C34.9322 20.2935 35.8028 19.0414 36.6381 19.0414V19.0412ZM29.7049 22.6645C29.9392 22.3282 30.4163 22.1577 31.0808 22.1577C31.5566 22.1577 32.1286 22.2453 32.7751 22.422C33.0908 22.5083 33.4171 22.6137 33.7515 22.7367C33.5374 23.6672 33.388 24.6964 33.3111 25.7813C32.7631 26.2261 32.2518 26.6836 31.7849 27.1436C29.9114 25.1864 29.1616 23.4443 29.7049 22.6645ZM29.7049 32.3749C29.1613 31.5949 29.9112 29.8527 31.7838 27.8953C32.2507 28.3555 32.762 28.8126 33.3111 29.2579C33.3882 30.3446 33.5381 31.3751 33.7526 32.3071C31.7055 33.0597 30.1842 33.0613 29.7049 32.3749ZM36.6381 35.9979C35.8028 35.9979 34.9322 34.7459 34.3753 32.6327C35.1528 32.3151 35.9086 31.9468 36.6381 31.5302C37.3676 31.9467 38.1234 32.315 38.9008 32.6327C38.3432 34.7459 37.4735 35.9979 36.6381 35.9979ZM43.5714 32.3749C43.093 33.0613 41.5706 33.0597 39.5237 32.308C39.7383 31.3762 39.8881 30.3455 39.965 29.2588C40.5119 28.8149 41.0226 28.3593 41.4881 27.9005C41.9699 28.4048 42.3929 28.9094 42.742 29.4021C43.6715 30.7139 43.9736 31.7977 43.5714 32.3749Z" fill="white"/>
<path d="M38.267 26.8259H38.1325V26.1912C38.1323 26.0282 38.0676 25.8719 37.9526 25.7566C37.8376 25.6414 37.6818 25.5765 37.5192 25.5763H35.7529C35.5902 25.5765 35.4344 25.6414 35.3194 25.7566C35.2044 25.8719 35.1397 26.0282 35.1395 26.1912V26.8259H35.0061C34.8435 26.8261 34.6877 26.891 34.5727 27.0063C34.4578 27.1215 34.3931 27.2778 34.3929 27.4408V27.546C34.3931 27.7089 34.4578 27.8652 34.5727 27.9804C34.6877 28.0956 34.8435 28.1604 35.0061 28.1606H35.1395V28.9749C35.1397 29.138 35.2044 29.2942 35.3194 29.4095C35.4344 29.5247 35.5902 29.5896 35.7529 29.5898H37.5192C37.6818 29.5896 37.8376 29.5247 37.9526 29.4095C38.0676 29.2942 38.1323 29.138 38.1325 28.9749V28.1606H38.267C38.4296 28.1604 38.5854 28.0956 38.7004 27.9804C38.8153 27.8652 38.88 27.7089 38.8802 27.546V27.4408C38.88 27.2778 38.8153 27.1215 38.7004 27.0063C38.5855 26.891 38.4296 26.8261 38.267 26.8259ZM35.6719 26.1912C35.6719 26.1805 35.674 26.17 35.6781 26.1602C35.6822 26.1503 35.6881 26.1414 35.6956 26.1339C35.7032 26.1264 35.7121 26.1204 35.7219 26.1164C35.7317 26.1123 35.7422 26.1102 35.7529 26.1103H37.5192C37.5406 26.1103 37.5611 26.1188 37.5762 26.134C37.5914 26.1491 37.5999 26.1697 37.5999 26.1912V27.6269H35.6719V26.1912ZM35.005 27.6269C34.9836 27.6268 34.9631 27.6183 34.948 27.6031C34.9329 27.5879 34.9243 27.5674 34.9243 27.546V27.4408C34.9243 27.4193 34.9328 27.3987 34.9479 27.3835C34.963 27.3683 34.9836 27.3597 35.005 27.3596H35.1384V27.6271L35.005 27.6269ZM37.5999 28.9749C37.5998 28.9964 37.5913 29.0169 37.5762 29.0321C37.561 29.0472 37.5405 29.0558 37.5192 29.0558H35.7529C35.7314 29.0558 35.7109 29.0473 35.6957 29.0322C35.6805 29.017 35.672 28.9964 35.6719 28.9749V28.1606H37.5999V28.9749ZM38.3477 27.546C38.3477 27.5674 38.3391 27.5879 38.324 27.6031C38.3089 27.6183 38.2884 27.6268 38.267 27.6269H38.1325V27.3594H38.267C38.2884 27.3595 38.309 27.368 38.3241 27.3833C38.3392 27.3985 38.3477 27.4191 38.3477 27.4405V27.546Z" fill="white"/>
</g>
<defs>
<clipPath id="clip0_3134_2179">
<rect width="71" height="18.024" fill="white" transform="translate(29 18.5077)"/>
</clipPath>
</defs>
</svg>
